<?xml version="1.0" standalone="no"?>
<!DOCTYPE svg PUBLIC "-//W3C//DTD SVG 20010904//EN"
 "http://www.w3.org/TR/2001/REC-SVG-20010904/DTD/svg10.dtd">
<svg version="1.0" xmlns="http://www.w3.org/2000/svg"
 width="500.000000pt" height="499.000000pt" viewBox="0 0 500.000000 499.000000"
 preserveAspectRatio="xMidYMid meet">

<g transform="translate(0.000000,499.000000) scale(0.100000,-0.100000)"
fill="#000000" stroke="none">
<path d="M2485 4951 c-225 -80 -363 -191 -508 -408 -117 -177 -174 -313 -216
-518 -16 -75 -19 -83 -20 -47 -5 219 86 526 217 727 57 89 158 201 217 243
l30 21 -40 -6 c-150 -21 -303 -73 -429 -145 -84 -49 -189 -151 -246 -238 -64
-100 -138 -261 -165 -362 -13 -50 -29 -148 -36 -217 -6 -69 -12 -127 -14 -129
-8 -8 -16 258 -10 321 14 145 78 375 129 465 14 23 22 42 20 42 -19 0 -171
-117 -234 -181 -85 -84 -182 -223 -207 -294 -23 -68 -13 -141 37 -264 39 -96
94 -290 85 -299 -2 -2 -11 11 -21 30 -55 107 -205 298 -234 298 -35 0 -70
-193 -70 -384 0 -227 26 -417 120 -861 27 -126 52 -252 56 -278 l7 -49 -61 31
c-73 37 -81 37 -116 10 -78 -62 -91 -223 -41 -519 8 -47 20 -130 26 -185 6
-55 17 -115 26 -132 16 -34 60 -67 104 -78 26 -7 27 -8 33 -123 23 -384 126
-621 373 -851 239 -224 588 -391 1082 -516 l97 -24 120 30 c477 121 850 302
1077 523 241 234 356 522 357 890 l0 61 52 20 c63 24 95 65 102 133 3 26 18
130 33 232 18 123 28 227 28 310 0 111 -3 130 -24 173 -30 62 -68 83 -118 66
-20 -6 -52 -21 -71 -32 l-35 -21 7 105 c12 188 26 272 71 434 60 219 68 268
63 382 -5 107 -19 157 -78 276 -163 326 -431 512 -790 546 -177 17 -342 -16
-516 -104 -57 -29 -104 -51 -104 -50 0 9 142 92 220 129 138 64 237 87 405 93
111 4 154 2 205 -11 151 -39 293 -134 552 -368 199 -182 269 -237 353 -278 92
-46 167 -56 246 -34 12 3 -15 36 -96 117 -113 114 -195 216 -345 432 -293 422
-455 564 -725 636 -114 31 -306 31 -428 1 -347 -86 -630 -303 -823 -632 -56
-95 -56 -84 0 28 149 295 371 515 660 653 103 49 269 99 329 99 52 0 18 16
-93 43 -154 38 -279 57 -420 62 -118 5 -129 3 -205 -24z m-671 -1426 c316 -60
524 -95 615 -102 94 -7 255 16 661 94 233 44 316 56 395 56 192 1 336 -68 391
-188 32 -67 30 -127 -6 -271 -45 -182 -63 -296 -48 -306 7 -4 39 -10 71 -14
89 -10 108 -58 67 -165 -24 -64 -54 -97 -95 -105 -32 -6 -32 -6 -39 -81 -3
-41 -13 -102 -22 -136 -14 -54 -15 -82 -4 -222 6 -88 18 -214 26 -280 29 -247
14 -387 -56 -533 -77 -161 -208 -263 -383 -298 -91 -19 -139 -13 -165 21 -11
13 -29 64 -41 112 -13 48 -29 103 -38 120 -24 52 -86 100 -150 119 -80 23
-251 15 -403 -20 l-115 -26 -110 25 c-148 35 -329 44 -408 21 -65 -19 -119
-62 -147 -116 -10 -20 -28 -74 -39 -121 -12 -46 -30 -95 -40 -109 -28 -39 -78
-46 -168 -27 -115 25 -197 69 -273 146 -73 74 -117 150 -151 261 -30 97 -32
264 -5 505 23 205 26 417 7 541 l-13 92 -40 11 c-45 14 -70 48 -94 129 -27 92
-6 126 85 136 51 6 61 10 61 26 0 33 -40 231 -67 330 -19 71 -24 110 -20 153
15 173 204 286 451 271 43 -3 183 -25 310 -49z m-914 -1125 c33 -16 66 -30 75
-30 23 0 20 -128 -10 -370 -14 -113 -28 -253 -32 -312 -3 -60 -10 -108 -15
-108 -24 0 -85 41 -96 65 -7 14 -15 51 -18 83 -3 31 -17 131 -31 222 -34 220
-35 378 -5 438 28 52 49 54 132 12z m3285 -15 c27 -55 26 -231 -4 -415 -12
-74 -26 -172 -31 -217 -5 -45 -15 -95 -24 -111 -15 -28 -82 -70 -93 -58 -4 3
-10 56 -15 118 -5 62 -20 207 -33 321 -31 256 -33 347 -7 347 9 0 42 13 72 30
76 41 109 37 135 -15z m-1881 -1280 c62 -19 126 -19 152 0 19 12 24 12 40 0
25 -19 88 -19 150 0 66 20 103 19 168 -5 71 -27 140 -88 162 -145 23 -61 16
-181 -15 -250 -35 -79 -108 -145 -161 -145 -36 0 -97 38 -120 75 -20 33 -22
44 -15 130 11 148 -7 163 -201 160 -175 -2 -197 -21 -178 -158 15 -103 -6
-151 -79 -189 -52 -26 -96 -18 -147 28 -22 20 -52 61 -67 92 -24 50 -27 69
-28 152 0 82 3 100 23 132 31 50 94 98 156 120 63 21 97 22 160 3z"/>
<path d="M1540 2919 c-30 -5 -134 -36 -230 -69 -97 -33 -202 -64 -235 -68 -52
-6 -61 -11 -73 -35 -12 -25 -11 -37 8 -97 25 -77 45 -100 99 -115 l36 -11 7
-84 c13 -172 84 -326 200 -435 114 -108 236 -155 403 -155 282 0 431 122 559
458 47 124 70 165 106 196 36 29 68 33 110 11 38 -20 62 -61 125 -220 30 -76
71 -164 91 -197 75 -123 193 -210 322 -237 76 -16 228 -14 296 4 92 24 192 82
260 151 110 110 167 236 188 411 l11 100 44 11 c40 11 47 17 70 68 50 111 39
174 -32 174 -36 0 -138 29 -290 83 -154 55 -246 70 -389 64 -107 -4 -145 -11
-331 -62 -414 -112 -434 -111 -825 1 -189 55 -199 57 -335 60 -77 1 -165 -2
-195 -7z m398 -98 c110 -23 204 -65 260 -116 60 -54 80 -135 62 -250 -39 -254
-185 -455 -369 -509 -163 -48 -386 16 -504 144 -102 109 -151 247 -151 425 -1
89 3 117 18 149 41 81 121 135 241 161 95 21 332 18 443 -4z m1584 -10 c90
-29 146 -73 182 -144 26 -50 29 -66 28 -145 -2 -237 -116 -449 -285 -532 -86
-42 -194 -63 -289 -57 -194 13 -345 155 -429 402 -33 96 -35 271 -4 325 41 71
184 143 335 169 30 5 132 8 225 7 142 -3 181 -7 237 -25z"/>
<path d="M1695 2639 c-38 -11 -94 -64 -111 -106 -48 -112 40 -245 162 -245 78
0 133 31 165 94 22 44 26 136 6 144 -7 2 -46 -9 -86 -25 -71 -30 -72 -30 -65
-8 4 12 17 43 30 69 31 62 30 74 -7 82 -39 7 -56 7 -94 -5z"/>
<path d="M3188 2640 c-71 -21 -128 -98 -128 -173 0 -137 150 -223 271 -155 54
30 89 92 89 160 0 32 -5 50 -14 54 -8 3 -46 -8 -85 -25 -39 -17 -71 -28 -71
-25 0 3 14 36 30 74 17 38 30 73 30 78 0 19 -75 26 -122 12z"/>
</g>
</svg>
